<svg width="107" height="37" viewBox="0 0 107 37" fill="none" xmlns="http://www.w3.org/2000/svg">
<mask id="path-1-inside-1_7_212" fill="white">
<path d="M10.498 8.92C9.5513 8.90667 8.6513 9.06 7.79797 9.38C6.95797 9.68667 6.2713 10.1067 5.73797 10.64C5.20464 11.1733 4.93797 11.7867 4.93797 12.48C4.93797 13.3733 5.18464 14.0467 5.67797 14.5C6.18464 14.9533 6.85797 15.2867 7.69797 15.5C8.53797 15.7 9.4713 15.8867 10.498 16.06C12.3646 16.3533 14.0913 16.8467 15.678 17.54C17.2646 18.2333 18.538 19.16 19.498 20.32C20.458 21.4667 20.938 22.8733 20.938 24.54C20.938 26.06 20.5446 27.4133 19.758 28.6C18.9713 29.7733 17.9113 30.7333 16.578 31.48C15.258 32.2267 13.7913 32.7 12.178 32.9V36.98H8.83797V32.9C7.4913 32.74 6.22464 32.4 5.03797 31.88C3.8513 31.36 2.81797 30.68 1.93797 29.84C1.0713 29 0.431302 28.02 0.0179689 26.9L4.59797 25.22C4.78464 25.7533 5.16464 26.24 5.73797 26.68C6.3113 27.12 7.0113 27.4733 7.83797 27.74C8.66464 28.0067 9.5513 28.14 10.498 28.14C11.4713 28.14 12.378 27.9933 13.218 27.7C14.0713 27.3933 14.758 26.9733 15.278 26.44C15.798 25.8933 16.058 25.26 16.058 24.54C16.058 23.8067 15.7846 23.2067 15.238 22.74C14.6913 22.26 13.9913 21.88 13.138 21.6C12.2846 21.32 11.4046 21.1067 10.498 20.96C8.5113 20.6533 6.7313 20.18 5.15797 19.54C3.58464 18.9 2.33797 18.0133 1.41797 16.88C0.511302 15.7467 0.0579688 14.28 0.0579688 12.48C0.0579688 10.96 0.451302 9.60667 1.23797 8.42C2.03797 7.23333 3.09797 6.27333 4.41797 5.54C5.7513 4.79333 7.22464 4.32 8.83797 4.12V0.0199986H12.178V4.12C13.498 4.28 14.7513 4.62 15.938 5.14C17.1246 5.66 18.158 6.34666 19.038 7.2C19.9313 8.04 20.5846 9.02667 20.998 10.16L16.398 11.82C16.2113 11.2867 15.8313 10.8 15.258 10.36C14.6846 9.92 13.9846 9.57333 13.158 9.32C12.3313 9.05333 11.4446 8.92 10.498 8.92ZM26.9177 32.5V9.38H23.3977L24.7177 4.5H31.7977V32.5H26.9177ZM35.8008 32.5V28.14C36.6674 27.4867 37.6941 26.68 38.8808 25.72C40.0674 24.7467 41.2874 23.7 42.5408 22.58C43.7941 21.4467 44.9541 20.3133 46.0208 19.18C47.0874 18.0467 47.9541 16.9667 48.6208 15.94C49.3008 14.9133 49.6408 14.0333 49.6408 13.3C49.6408 12.4867 49.4408 11.7467 49.0408 11.08C48.6408 10.4 48.1075 9.86 47.4408 9.46C46.7875 9.06 46.0541 8.86 45.2408 8.86C44.4275 8.86 43.6874 9.06 43.0208 9.46C42.3541 9.86 41.8208 10.4 41.4208 11.08C41.0208 11.7467 40.8208 12.4867 40.8208 13.3H35.9408C35.9408 11.54 36.3674 9.96 37.2208 8.56C38.0741 7.14667 39.2008 6.03333 40.6008 5.22C42.0141 4.39333 43.5608 3.98 45.2408 3.98C46.9474 3.98 48.5008 4.4 49.9008 5.24C51.3008 6.06666 52.4208 7.18666 53.2608 8.6C54.1008 10.0133 54.5208 11.58 54.5208 13.3C54.5208 14.2067 54.3541 15.12 54.0208 16.04C53.6875 16.96 53.2208 17.8867 52.6208 18.82C52.0208 19.7533 51.3141 20.7 50.5008 21.66C49.6874 22.6067 48.7874 23.58 47.8008 24.58C46.8275 25.5667 45.8008 26.58 44.7208 27.62H54.6608V32.5H35.8008ZM60.3523 33.02C59.659 33.02 59.0657 32.78 58.5723 32.3C58.0923 31.8067 57.8523 31.2067 57.8523 30.5C57.8523 29.82 58.0923 29.2333 58.5723 28.74C59.0657 28.2467 59.659 28 60.3523 28C61.0457 28 61.639 28.2467 62.1323 28.74C62.6257 29.2333 62.8723 29.82 62.8723 30.5C62.8723 31.2067 62.6257 31.8067 62.1323 32.3C61.639 32.78 61.0457 33.02 60.3523 33.02ZM70.2758 32.5L75.6558 23.2C74.3358 23.28 73.0758 23.1 71.8758 22.66C70.6891 22.22 69.6291 21.5667 68.6958 20.7C67.7625 19.8333 67.0225 18.8067 66.4758 17.62C65.9425 16.4333 65.6758 15.1467 65.6758 13.76C65.6758 12.4133 65.9291 11.1533 66.4358 9.98C66.9425 8.79333 67.6425 7.75333 68.5358 6.86C69.4425 5.95333 70.4825 5.24667 71.6558 4.74C72.8425 4.23333 74.1158 3.98 75.4758 3.98C77.2491 3.98 78.8691 4.42 80.3358 5.3C81.8158 6.18 82.9958 7.36 83.8758 8.84C84.7691 10.32 85.2158 11.96 85.2158 13.76C85.2158 14.6533 85.1025 15.5 84.8758 16.3C84.6625 17.0867 84.3225 17.8867 83.8558 18.7L75.9158 32.5H70.2758ZM75.4358 18.66C76.3958 18.66 77.2425 18.4267 77.9758 17.96C78.7225 17.4933 79.3025 16.8867 79.7158 16.14C80.1291 15.3933 80.3358 14.5933 80.3358 13.74C80.3358 12.8067 80.1091 11.9733 79.6558 11.24C79.2025 10.4933 78.6025 9.91333 77.8558 9.5C77.1091 9.07333 76.3158 8.86 75.4758 8.86C74.5158 8.86 73.6625 9.09333 72.9158 9.56C72.1825 10.0133 71.6025 10.6133 71.1758 11.36C70.7491 12.1067 70.5358 12.9 70.5358 13.74C70.5358 14.6333 70.7491 15.4533 71.1758 16.2C71.6158 16.9467 72.2025 17.5467 72.9358 18C73.6825 18.44 74.5158 18.66 75.4358 18.66ZM91.4289 32.5L96.8089 23.2C95.4889 23.28 94.2289 23.1 93.0289 22.66C91.8422 22.22 90.7822 21.5667 89.8489 20.7C88.9156 19.8333 88.1756 18.8067 87.6289 17.62C87.0956 16.4333 86.8289 15.1467 86.8289 13.76C86.8289 12.4133 87.0822 11.1533 87.5889 9.98C88.0956 8.79333 88.7956 7.75333 89.6889 6.86C90.5956 5.95333 91.6356 5.24667 92.8089 4.74C93.9956 4.23333 95.2689 3.98 96.6289 3.98C98.4022 3.98 100.022 4.42 101.489 5.3C102.969 6.18 104.149 7.36 105.029 8.84C105.922 10.32 106.369 11.96 106.369 13.76C106.369 14.6533 106.256 15.5 106.029 16.3C105.816 17.0867 105.476 17.8867 105.009 18.7L97.0689 32.5H91.4289ZM96.5889 18.66C97.5489 18.66 98.3956 18.4267 99.1289 17.96C99.8756 17.4933 100.456 16.8867 100.869 16.14C101.282 15.3933 101.489 14.5933 101.489 13.74C101.489 12.8067 101.262 11.9733 100.809 11.24C100.356 10.4933 99.7556 9.91333 99.0089 9.5C98.2622 9.07333 97.4689 8.86 96.6289 8.86C95.6689 8.86 94.8156 9.09333 94.0689 9.56C93.3356 10.0133 92.7556 10.6133 92.3289 11.36C91.9022 12.1067 91.6889 12.9 91.6889 13.74C91.6889 14.6333 91.9022 15.4533 92.3289 16.2C92.7689 16.9467 93.3556 17.5467 94.0889 18C94.8356 18.44 95.6689 18.66 96.5889 18.66Z"/>
</mask>
<path d="M10.498 8.92C9.5513 8.90667 8.6513 9.06 7.79797 9.38C6.95797 9.68667 6.2713 10.1067 5.73797 10.64C5.20464 11.1733 4.93797 11.7867 4.93797 12.48C4.93797 13.3733 5.18464 14.0467 5.67797 14.5C6.18464 14.9533 6.85797 15.2867 7.69797 15.5C8.53797 15.7 9.4713 15.8867 10.498 16.06C12.3646 16.3533 14.0913 16.8467 15.678 17.54C17.2646 18.2333 18.538 19.16 19.498 20.32C20.458 21.4667 20.938 22.8733 20.938 24.54C20.938 26.06 20.5446 27.4133 19.758 28.6C18.9713 29.7733 17.9113 30.7333 16.578 31.48C15.258 32.2267 13.7913 32.7 12.178 32.9V36.98H8.83797V32.9C7.4913 32.74 6.22464 32.4 5.03797 31.88C3.8513 31.36 2.81797 30.68 1.93797 29.84C1.0713 29 0.431302 28.02 0.0179689 26.9L4.59797 25.22C4.78464 25.7533 5.16464 26.24 5.73797 26.68C6.3113 27.12 7.0113 27.4733 7.83797 27.74C8.66464 28.0067 9.5513 28.14 10.498 28.14C11.4713 28.14 12.378 27.9933 13.218 27.7C14.0713 27.3933 14.758 26.9733 15.278 26.44C15.798 25.8933 16.058 25.26 16.058 24.54C16.058 23.8067 15.7846 23.2067 15.238 22.74C14.6913 22.26 13.9913 21.88 13.138 21.6C12.2846 21.32 11.4046 21.1067 10.498 20.96C8.5113 20.6533 6.7313 20.18 5.15797 19.54C3.58464 18.9 2.33797 18.0133 1.41797 16.88C0.511302 15.7467 0.0579688 14.28 0.0579688 12.48C0.0579688 10.96 0.451302 9.60667 1.23797 8.42C2.03797 7.23333 3.09797 6.27333 4.41797 5.54C5.7513 4.79333 7.22464 4.32 8.83797 4.12V0.0199986H12.178V4.12C13.498 4.28 14.7513 4.62 15.938 5.14C17.1246 5.66 18.158 6.34666 19.038 7.2C19.9313 8.04 20.5846 9.02667 20.998 10.16L16.398 11.82C16.2113 11.2867 15.8313 10.8 15.258 10.36C14.6846 9.92 13.9846 9.57333 13.158 9.32C12.3313 9.05333 11.4446 8.92 10.498 8.92ZM26.9177 32.5V9.38H23.3977L24.7177 4.5H31.7977V32.5H26.9177ZM35.8008 32.5V28.14C36.6674 27.4867 37.6941 26.68 38.8808 25.72C40.0674 24.7467 41.2874 23.7 42.5408 22.58C43.7941 21.4467 44.9541 20.3133 46.0208 19.18C47.0874 18.0467 47.9541 16.9667 48.6208 15.94C49.3008 14.9133 49.6408 14.0333 49.6408 13.3C49.6408 12.4867 49.4408 11.7467 49.0408 11.08C48.6408 10.4 48.1075 9.86 47.4408 9.46C46.7875 9.06 46.0541 8.86 45.2408 8.86C44.4275 8.86 43.6874 9.06 43.0208 9.46C42.3541 9.86 41.8208 10.4 41.4208 11.08C41.0208 11.7467 40.8208 12.4867 40.8208 13.3H35.9408C35.9408 11.54 36.3674 9.96 37.2208 8.56C38.0741 7.14667 39.2008 6.03333 40.6008 5.22C42.0141 4.39333 43.5608 3.98 45.2408 3.98C46.9474 3.98 48.5008 4.4 49.9008 5.24C51.3008 6.06666 52.4208 7.18666 53.2608 8.6C54.1008 10.0133 54.5208 11.58 54.5208 13.3C54.5208 14.2067 54.3541 15.12 54.0208 16.04C53.6875 16.96 53.2208 17.8867 52.6208 18.82C52.0208 19.7533 51.3141 20.7 50.5008 21.66C49.6874 22.6067 48.7874 23.58 47.8008 24.58C46.8275 25.5667 45.8008 26.58 44.7208 27.62H54.6608V32.5H35.8008ZM60.3523 33.02C59.659 33.02 59.0657 32.78 58.5723 32.3C58.0923 31.8067 57.8523 31.2067 57.8523 30.5C57.8523 29.82 58.0923 29.2333 58.5723 28.74C59.0657 28.2467 59.659 28 60.3523 28C61.0457 28 61.639 28.2467 62.1323 28.74C62.6257 29.2333 62.8723 29.82 62.8723 30.5C62.8723 31.2067 62.6257 31.8067 62.1323 32.3C61.639 32.78 61.0457 33.02 60.3523 33.02ZM70.2758 32.5L75.6558 23.2C74.3358 23.28 73.0758 23.1 71.8758 22.66C70.6891 22.22 69.6291 21.5667 68.6958 20.7C67.7625 19.8333 67.0225 18.8067 66.4758 17.62C65.9425 16.4333 65.6758 15.1467 65.6758 13.76C65.6758 12.4133 65.9291 11.1533 66.4358 9.98C66.9425 8.79333 67.6425 7.75333 68.5358 6.86C69.4425 5.95333 70.4825 5.24667 71.6558 4.74C72.8425 4.23333 74.1158 3.98 75.4758 3.98C77.2491 3.98 78.8691 4.42 80.3358 5.3C81.8158 6.18 82.9958 7.36 83.8758 8.84C84.7691 10.32 85.2158 11.96 85.2158 13.76C85.2158 14.6533 85.1025 15.5 84.8758 16.3C84.6625 17.0867 84.3225 17.8867 83.8558 18.7L75.9158 32.5H70.2758ZM75.4358 18.66C76.3958 18.66 77.2425 18.4267 77.9758 17.96C78.7225 17.4933 79.3025 16.8867 79.7158 16.14C80.1291 15.3933 80.3358 14.5933 80.3358 13.74C80.3358 12.8067 80.1091 11.9733 79.6558 11.24C79.2025 10.4933 78.6025 9.91333 77.8558 9.5C77.1091 9.07333 76.3158 8.86 75.4758 8.86C74.5158 8.86 73.6625 9.09333 72.9158 9.56C72.1825 10.0133 71.6025 10.6133 71.1758 11.36C70.7491 12.1067 70.5358 12.9 70.5358 13.74C70.5358 14.6333 70.7491 15.4533 71.1758 16.2C71.6158 16.9467 72.2025 17.5467 72.9358 18C73.6825 18.44 74.5158 18.66 75.4358 18.66ZM91.4289 32.5L96.8089 23.2C95.4889 23.28 94.2289 23.1 93.0289 22.66C91.8422 22.22 90.7822 21.5667 89.8489 20.7C88.9156 19.8333 88.1756 18.8067 87.6289 17.62C87.0956 16.4333 86.8289 15.1467 86.8289 13.76C86.8289 12.4133 87.0822 11.1533 87.5889 9.98C88.0956 8.79333 88.7956 7.75333 89.6889 6.86C90.5956 5.95333 91.6356 5.24667 92.8089 4.74C93.9956 4.23333 95.2689 3.98 96.6289 3.98C98.4022 3.98 100.022 4.42 101.489 5.3C102.969 6.18 104.149 7.36 105.029 8.84C105.922 10.32 106.369 11.96 106.369 13.76C106.369 14.6533 106.256 15.5 106.029 16.3C105.816 17.0867 105.476 17.8867 105.009 18.7L97.0689 32.5H91.4289ZM96.5889 18.66C97.5489 18.66 98.3956 18.4267 99.1289 17.96C99.8756 17.4933 100.456 16.8867 100.869 16.14C101.282 15.3933 101.489 14.5933 101.489 13.74C101.489 12.8067 101.262 11.9733 100.809 11.24C100.356 10.4933 99.7556 9.91333 99.0089 9.5C98.2622 9.07333 97.4689 8.86 96.6289 8.86C95.6689 8.86 94.8156 9.09333 94.0689 9.56C93.3356 10.0133 92.7556 10.6133 92.3289 11.36C91.9022 12.1067 91.6889 12.9 91.6889 13.74C91.6889 14.6333 91.9022 15.4533 92.3289 16.2C92.7689 16.9467 93.3556 17.5467 94.0889 18C94.8356 18.44 95.6689 18.66 96.5889 18.66Z" fill="url(#paint0_linear_7_212)"/>
<path d="M10.498 8.92L10.4839 9.92H10.498V8.92ZM7.79797 9.38L8.14092 10.3194L8.14909 10.3163L7.79797 9.38ZM5.73797 10.64L6.44508 11.3471V11.3471L5.73797 10.64ZM5.67797 14.5L5.00128 15.2364L5.01117 15.2452L5.67797 14.5ZM7.69797 15.5L7.45181 16.4692L7.45907 16.4711L7.46635 16.4728L7.69797 15.5ZM10.498 16.06L10.3315 17.0461L10.3427 17.0479L10.498 16.06ZM19.498 20.32L18.7276 20.9576L18.7312 20.9619L19.498 20.32ZM19.758 28.6L20.5886 29.1569L20.5915 29.1525L19.758 28.6ZM16.578 31.48L16.0894 30.6075L16.0856 30.6096L16.578 31.48ZM12.178 32.9L12.0549 31.9076L11.178 32.0163V32.9H12.178ZM12.178 36.98V37.98H13.178V36.98H12.178ZM8.83797 36.98H7.83797V37.98H8.83797V36.98ZM8.83797 32.9H9.83797V32.0118L8.95595 31.907L8.83797 32.9ZM5.03797 31.88L5.43933 30.9641H5.43933L5.03797 31.88ZM1.93797 29.84L1.24198 30.5581L1.24749 30.5634L1.93797 29.84ZM0.0179689 26.9L-0.326406 25.9612L-1.26709 26.3062L-0.920183 27.2462L0.0179689 26.9ZM4.59797 25.22L5.54183 24.8896L5.20652 23.9316L4.25359 24.2812L4.59797 25.22ZM5.73797 26.68L6.34679 25.8867H6.34679L5.73797 26.68ZM7.83797 27.74L7.53097 28.6917L7.53097 28.6917L7.83797 27.74ZM13.218 27.7L13.5477 28.6441L13.5562 28.6411L13.218 27.7ZM15.278 26.44L15.994 27.1382L16.0025 27.1292L15.278 26.44ZM15.238 22.74L14.5781 23.4915L14.5887 23.5006L15.238 22.74ZM13.138 21.6L12.8262 22.5502L13.138 21.6ZM10.498 20.96L10.6577 19.9728L10.6505 19.9717L10.498 20.96ZM5.15797 19.54L4.78117 20.4663L5.15797 19.54ZM1.41797 16.88L0.63708 17.5047L0.641576 17.5102L1.41797 16.88ZM1.23797 8.42L0.408771 7.86099L0.40448 7.86746L1.23797 8.42ZM4.41797 5.54L4.90361 6.41416L4.90657 6.41251L4.41797 5.54ZM8.83797 4.12L8.96099 5.1124L9.83797 5.00369V4.12H8.83797ZM8.83797 0.0199986V-0.980001H7.83797V0.0199986H8.83797ZM12.178 0.0199986H13.178V-0.980001H12.178V0.0199986ZM12.178 4.12H11.178V5.00611L12.0576 5.11273L12.178 4.12ZM15.938 5.14L15.5366 6.05592V6.05592L15.938 5.14ZM19.038 7.2L18.3418 7.9179L18.3473 7.92325L18.3529 7.92852L19.038 7.2ZM20.998 10.16L21.3374 11.1006L22.2812 10.76L21.9374 9.81737L20.998 10.16ZM16.398 11.82L15.4541 12.1504L15.7877 13.1034L16.7374 12.7606L16.398 11.82ZM15.258 10.36L14.6492 11.1533V11.1533L15.258 10.36ZM13.158 9.32L12.851 10.2717L12.858 10.274L12.865 10.2761L13.158 9.32ZM10.5121 7.9201C9.44567 7.90508 8.42141 8.07821 7.44685 8.44367L8.14909 10.3163C8.8812 10.0418 9.65693 9.90825 10.4839 9.9199L10.5121 7.9201ZM7.45503 8.44064C6.50328 8.78811 5.68458 9.27918 5.03086 9.93289L6.44508 11.3471C6.85803 10.9342 7.41266 10.5852 8.14091 10.3194L7.45503 8.44064ZM5.03086 9.93289C4.32815 10.6356 3.93797 11.4968 3.93797 12.48H5.93797C5.93797 12.0765 6.08112 11.7111 6.44508 11.3471L5.03086 9.93289ZM3.93797 12.48C3.93797 13.5555 4.23957 14.5363 5.00134 15.2363L6.35459 13.7637C6.1297 13.557 5.93797 13.1911 5.93797 12.48H3.93797ZM5.01117 15.2452C5.66643 15.8315 6.49739 16.2268 7.45181 16.4692L7.94412 14.5308C7.21854 14.3465 6.70284 14.0751 6.34476 13.7548L5.01117 15.2452ZM7.46635 16.4728C8.33175 16.6789 9.28724 16.8697 10.3315 17.046L10.6644 15.074C9.65536 14.9036 8.74419 14.7211 7.92959 14.5272L7.46635 16.4728ZM10.3427 17.0479C12.1326 17.3291 13.776 17.8002 15.2776 18.4563L16.0784 16.6237C14.4066 15.8931 12.5967 15.3775 10.6532 15.0721L10.3427 17.0479ZM15.2776 18.4563C16.7424 19.0964 17.8814 19.9351 18.7276 20.9576L20.2684 19.6824C19.1946 18.3849 17.7869 17.3702 16.0784 16.6237L15.2776 18.4563ZM18.7312 20.9619C19.5231 21.9078 19.938 23.0794 19.938 24.54H21.938C21.938 22.6673 21.3928 21.0255 20.2647 19.6781L18.7312 20.9619ZM19.938 24.54C19.938 25.8774 19.5951 27.0359 18.9245 28.0475L20.5915 29.1525C21.4942 27.7908 21.938 26.2426 21.938 24.54H19.938ZM18.9274 28.0431C18.2353 29.0753 17.2969 29.9313 16.0894 30.6075L17.0666 32.3525C18.5257 31.5354 19.7073 30.4713 20.5886 29.1569L18.9274 28.0431ZM16.0856 30.6096C14.8876 31.2873 13.5478 31.7225 12.0549 31.9076L12.301 33.8924C14.0348 33.6775 15.6284 33.166 17.0703 32.3504L16.0856 30.6096ZM11.178 32.9V36.98H13.178V32.9H11.178ZM12.178 35.98H8.83797V37.98H12.178V35.98ZM9.83797 36.98V32.9H7.83797V36.98H9.83797ZM8.95595 31.907C7.70243 31.7581 6.53171 31.4428 5.43933 30.9641L4.63661 32.7959C5.91756 33.3572 7.28017 33.7219 8.71999 33.893L8.95595 31.907ZM5.43933 30.9641C4.35254 30.4878 3.41869 29.871 2.62844 29.1166L1.24749 30.5634C2.21724 31.489 3.35007 32.2322 4.63661 32.7959L5.43933 30.9641ZM2.63394 29.1219C1.87361 28.385 1.31701 27.5317 0.956121 26.5538L-0.920183 27.2462C-0.454404 28.5083 0.268996 29.615 1.242 30.5581L2.63394 29.1219ZM0.362344 27.8388L4.94234 26.1588L4.25359 24.2812L-0.326406 25.9612L0.362344 27.8388ZM3.65411 25.5504C3.92079 26.3123 4.44421 26.9477 5.12915 27.4733L6.34679 25.8867C5.88506 25.5323 5.64848 25.1944 5.54183 24.8896L3.65411 25.5504ZM5.12915 27.4733C5.80952 27.9955 6.61673 28.3968 7.53097 28.6917L8.14497 26.7883C7.40588 26.5499 6.81308 26.2445 6.34679 25.8867L5.12915 27.4733ZM7.53097 28.6917C8.46533 28.9931 9.4564 29.14 10.498 29.14V27.14C9.6462 27.14 8.86395 27.0202 8.14497 26.7883L7.53097 28.6917ZM10.498 29.14C11.573 29.14 12.5922 28.9777 13.5477 28.6441L12.8883 26.7559C12.1638 27.0089 11.3696 27.14 10.498 27.14V29.14ZM13.5562 28.6411C14.5217 28.2941 15.3476 27.8011 15.994 27.1381L14.562 25.7419C14.1684 26.1456 13.6209 26.4926 12.8798 26.7589L13.5562 28.6411ZM16.0025 27.1292C16.69 26.4065 17.058 25.5298 17.058 24.54H15.058C15.058 24.9902 14.9059 25.3802 14.5534 25.7508L16.0025 27.1292ZM17.058 24.54C17.058 23.5209 16.6616 22.6405 15.8872 21.9794L14.5887 23.5006C14.9077 23.7729 15.058 24.0925 15.058 24.54H17.058ZM15.8978 21.9886C15.2289 21.4013 14.4021 20.9623 13.4497 20.6498L12.8262 22.5502C13.5805 22.7977 14.1537 23.1187 14.5782 23.4914L15.8978 21.9886ZM13.4497 20.6498C12.5456 20.3532 11.6147 20.1277 10.6577 19.9728L10.3383 21.9472C11.1945 22.0857 12.0236 22.2868 12.8262 22.5502L13.4497 20.6498ZM10.6505 19.9717C8.72716 19.6748 7.02429 19.2196 5.53477 18.6137L4.78117 20.4663C6.43831 21.1404 8.29545 21.6319 10.3454 21.9483L10.6505 19.9717ZM5.53477 18.6137C4.09176 18.0267 2.99202 17.2324 2.19436 16.2498L0.641576 17.5102C1.68392 18.7943 3.07751 19.7733 4.78117 20.4663L5.53477 18.6137ZM2.19884 16.2553C1.46542 15.3385 1.05797 14.1089 1.05797 12.48H-0.942031C-0.942031 14.4511 -0.442815 16.1548 0.6371 17.5047L2.19884 16.2553ZM1.05797 12.48C1.05797 11.1426 1.40084 9.98414 2.07146 8.97253L0.40448 7.86746C-0.49824 9.22919 -0.942031 10.7774 -0.942031 12.48H1.05797ZM2.06714 8.97899C2.7742 7.93019 3.71354 7.0753 4.90361 6.41416L3.93233 4.66584C2.48239 5.47136 1.30174 6.53648 0.408796 7.861L2.06714 8.97899ZM4.90657 6.41251C6.11988 5.73305 7.46783 5.29751 8.96099 5.1124L8.71494 3.1276C6.98144 3.34249 5.38272 3.85361 3.92937 4.66749L4.90657 6.41251ZM9.83797 4.12V0.0199986H7.83797V4.12H9.83797ZM8.83797 1.02H12.178V-0.980001H8.83797V1.02ZM11.178 0.0199986V4.12H13.178V0.0199986H11.178ZM12.0576 5.11273C13.2833 5.2613 14.4417 5.57613 15.5366 6.05592L16.3393 4.22408C15.0609 3.66387 13.7127 3.2987 12.2983 3.12727L12.0576 5.11273ZM15.5366 6.05592C16.6203 6.53078 17.5523 7.15228 18.3418 7.9179L19.7341 6.4821C18.7637 5.54105 17.629 4.78921 16.3393 4.22408L15.5366 6.05592ZM18.3529 7.92852C19.1344 8.66335 19.6996 9.51852 20.0585 10.5026L21.9374 9.81737C21.4697 8.53481 20.7282 7.41664 19.723 6.47148L18.3529 7.92852ZM20.6585 9.21937L16.0585 10.8794L16.7374 12.7606L21.3374 11.1006L20.6585 9.21937ZM17.3418 11.4896C17.0752 10.7277 16.5517 10.0923 15.8668 9.56669L14.6492 11.1533C15.1109 11.5077 15.3475 11.8456 15.4541 12.1504L17.3418 11.4896ZM15.8668 9.56669C15.1822 9.04129 14.3699 8.64551 13.451 8.36389L12.865 10.2761C13.5993 10.5012 14.1871 10.7987 14.6492 11.1533L15.8668 9.56669ZM13.465 8.36829C12.5306 8.06688 11.5395 7.92 10.498 7.92V9.92C11.3497 9.92 12.132 10.0398 12.851 10.2717L13.465 8.36829ZM26.9177 32.5H25.9177V33.5H26.9177V32.5ZM26.9177 9.38H27.9177V8.38H26.9177V9.38ZM23.3977 9.38L22.4323 9.11889L22.0912 10.38H23.3977V9.38ZM24.7177 4.5V3.5H23.9522L23.7523 4.23889L24.7177 4.5ZM31.7977 4.5H32.7977V3.5H31.7977V4.5ZM31.7977 32.5V33.5H32.7977V32.5H31.7977ZM27.9177 32.5V9.38H25.9177V32.5H27.9177ZM26.9177 8.38H23.3977V10.38H26.9177V8.38ZM24.363 9.64111L25.683 4.76111L23.7523 4.23889L22.4323 9.11889L24.363 9.64111ZM24.7177 5.5H31.7977V3.5H24.7177V5.5ZM30.7977 4.5V32.5H32.7977V4.5H30.7977ZM31.7977 31.5H26.9177V33.5H31.7977V31.5ZM35.8008 32.5H34.8008V33.5H35.8008V32.5ZM35.8008 28.14L35.1988 27.3415L34.8008 27.6415V28.14H35.8008ZM38.8808 25.72L39.5097 26.4975L39.515 26.4932L38.8808 25.72ZM42.5408 22.58L43.2071 23.3257L43.2115 23.3217L42.5408 22.58ZM46.0208 19.18L46.749 19.8654H46.749L46.0208 19.18ZM48.6208 15.94L47.787 15.3878L47.7821 15.3954L48.6208 15.94ZM49.0408 11.08L48.1788 11.587L48.1833 11.5945L49.0408 11.08ZM47.4408 9.46L46.9186 10.3129L46.9263 10.3175L47.4408 9.46ZM43.0208 9.46L42.5063 8.60251V8.60251L43.0208 9.46ZM41.4208 11.08L42.2783 11.5945L42.2827 11.587L41.4208 11.08ZM40.8208 13.3V14.3H41.8208V13.3H40.8208ZM35.9408 13.3H34.9408V14.3H35.9408V13.3ZM37.2208 8.56L38.0747 9.08047L38.0768 9.07687L37.2208 8.56ZM40.6008 5.22L41.1031 6.08468L41.1057 6.08319L40.6008 5.22ZM49.9008 5.24L49.3863 6.09751L49.3923 6.10109L49.9008 5.24ZM53.2608 8.6L52.4012 9.11091L53.2608 8.6ZM54.0208 16.04L54.961 16.3806L54.0208 16.04ZM52.6208 18.82L53.462 19.3608V19.3608L52.6208 18.82ZM50.5008 21.66L51.2593 22.3117L51.2638 22.3064L50.5008 21.66ZM47.8008 24.58L47.0889 23.8777L47.0889 23.8777L47.8008 24.58ZM44.7208 27.62L44.0271 26.8997L42.2407 28.62H44.7208V27.62ZM54.6608 27.62H55.6608V26.62H54.6608V27.62ZM54.6608 32.5V33.5H55.6608V32.5H54.6608ZM36.8008 32.5V28.14H34.8008V32.5H36.8008ZM36.4027 28.9385C37.2813 28.2762 38.3174 27.462 39.5097 26.4974L38.2518 24.9426C37.0708 25.898 36.0536 26.6971 35.1988 27.3415L36.4027 28.9385ZM39.515 26.4932C40.7135 25.5101 41.9442 24.4542 43.2071 23.3257L41.8745 21.8343C40.6307 22.9458 39.4214 23.9832 38.2466 24.9468L39.515 26.4932ZM43.2115 23.3217C44.4831 22.1719 45.6624 21.0198 46.749 19.8654L45.2926 18.4946C44.2458 19.6068 43.1052 20.7214 41.8701 21.8383L43.2115 23.3217ZM46.749 19.8654C47.8462 18.6996 48.7529 17.5727 49.4595 16.4846L47.7821 15.3954C47.1553 16.3606 46.3287 17.3937 45.2926 18.4946L46.749 19.8654ZM49.4545 16.4922C50.177 15.4013 50.6408 14.3223 50.6408 13.3H48.6408C48.6408 13.7443 48.4246 14.4253 47.7871 15.3878L49.4545 16.4922ZM50.6408 13.3C50.6408 12.3142 50.3959 11.3949 49.8983 10.5655L48.1833 11.5945C48.4856 12.0984 48.6408 12.6592 48.6408 13.3H50.6408ZM49.9027 10.573C49.4193 9.75118 48.7674 9.08978 47.9553 8.60251L46.9263 10.3175C47.4475 10.6302 47.8623 11.0488 48.1788 11.587L49.9027 10.573ZM47.9629 8.60715C47.1426 8.10491 46.2265 7.86 45.2408 7.86V9.86C45.8817 9.86 46.4323 10.0151 46.9186 10.3129L47.9629 8.60715ZM45.2408 7.86C44.2549 7.86 43.3357 8.10486 42.5063 8.60251L43.5353 10.3175C44.0392 10.0151 44.6 9.86 45.2408 9.86V7.86ZM42.5063 8.60251C41.6942 9.08978 41.0423 9.75118 40.5588 10.573L42.2827 11.587C42.5993 11.0488 43.0141 10.6302 43.5353 10.3175L42.5063 8.60251ZM40.5633 10.5655C40.0656 11.3949 39.8208 12.3142 39.8208 13.3H41.8208C41.8208 12.6592 41.9759 12.0984 42.2783 11.5945L40.5633 10.5655ZM40.8208 12.3H35.9408V14.3H40.8208V12.3ZM36.9408 13.3C36.9408 11.7096 37.3239 10.3121 38.0747 9.08046L36.3669 8.03954C35.411 9.60787 34.9408 11.3704 34.9408 13.3H36.9408ZM38.0768 9.07687C38.8451 7.80439 39.8513 6.8119 41.1031 6.08467L40.0984 4.35532C38.5502 5.25476 37.3031 6.48894 36.3647 8.04313L38.0768 9.07687ZM41.1057 6.08319C42.3617 5.34853 43.7334 4.98 45.2408 4.98V2.98C43.3882 2.98 41.6665 3.43814 40.0959 4.35681L41.1057 6.08319ZM45.2408 4.98C46.7748 4.98 48.1489 5.35506 49.3863 6.09749L50.4153 4.38251C48.8527 3.44494 47.1201 2.98 45.2408 2.98V4.98ZM49.3923 6.10109C50.646 6.84137 51.6459 7.84024 52.4012 9.11091L54.1204 8.08909C53.1956 6.53309 51.9555 5.29196 50.4092 4.37891L49.3923 6.10109ZM52.4012 9.11091C53.1449 10.3624 53.5208 11.7512 53.5208 13.3H55.5208C55.5208 11.4088 55.0566 9.66429 54.1204 8.08909L52.4012 9.11091ZM53.5208 13.3C53.5208 14.0816 53.3775 14.8799 53.0806 15.6994L54.961 16.3806C55.3307 15.3601 55.5208 14.3317 55.5208 13.3H53.5208ZM53.0806 15.6994C52.7758 16.5405 52.3445 17.4005 51.7796 18.2792L53.462 19.3608C54.0971 18.3728 54.5991 17.3795 54.961 16.3806L53.0806 15.6994ZM51.7796 18.2792C51.2062 19.1712 50.5265 20.0827 49.7378 21.0136L51.2638 22.3064C52.1018 21.3173 52.8354 20.3355 53.462 19.3608L51.7796 18.2792ZM49.7423 21.0083C48.9456 21.9356 48.0614 22.892 47.0889 23.8777L48.5126 25.2823C49.5135 24.268 50.4293 23.2778 51.2593 22.3117L49.7423 21.0083ZM47.0889 23.8777C46.122 24.8578 45.1015 25.8651 44.0271 26.8997L45.4144 28.3403C46.5001 27.2949 47.5329 26.2755 48.5127 25.2823L47.0889 23.8777ZM44.7208 28.62H54.6608V26.62H44.7208V28.62ZM53.6608 27.62V32.5H55.6608V27.62H53.6608ZM54.6608 31.5H35.8008V33.5H54.6608V31.5ZM58.5723 32.3L57.8556 32.9974L57.8652 33.0072L57.875 33.0167L58.5723 32.3ZM58.5723 28.74L57.8652 28.0328L57.8556 28.0426L58.5723 28.74ZM62.1323 28.74L61.4252 29.4471L62.1323 28.74ZM62.1323 32.3L62.8298 33.0168L62.8394 33.0071L62.1323 32.3ZM60.3523 32.02C59.9174 32.02 59.5748 31.8802 59.2697 31.5833L57.875 33.0167C58.5565 33.6798 59.4007 34.02 60.3523 34.02V32.02ZM59.2891 31.6026C58.996 31.3015 58.8523 30.9539 58.8523 30.5H56.8523C56.8523 31.4594 57.1886 32.3119 57.8556 32.9974L59.2891 31.6026ZM58.8523 30.5C58.8523 30.084 58.9882 29.7466 59.2891 29.4374L57.8556 28.0426C57.1965 28.7201 56.8523 29.556 56.8523 30.5H58.8523ZM59.2794 29.4471C59.5866 29.14 59.9261 29 60.3523 29V27C59.3919 27 58.5448 27.3533 57.8652 28.0329L59.2794 29.4471ZM60.3523 29C60.7786 29 61.1181 29.14 61.4252 29.4471L62.8394 28.0329C62.1599 27.3533 61.3128 27 60.3523 27V29ZM61.4252 29.4471C61.7365 29.7584 61.8723 30.0928 61.8723 30.5H63.8723C63.8723 29.5472 63.5149 28.7083 62.8394 28.0329L61.4252 29.4471ZM61.8723 30.5C61.8723 30.9453 61.7283 31.2898 61.4252 31.5929L62.8394 33.0071C63.523 32.3235 63.8723 31.468 63.8723 30.5H61.8723ZM61.435 31.5833C61.1299 31.8802 60.7873 32.02 60.3523 32.02V34.02C61.304 34.02 62.1482 33.6798 62.8297 33.0167L61.435 31.5833ZM70.2758 32.5L69.4102 31.9993L68.542 33.5H70.2758V32.5ZM75.6558 23.2L76.5214 23.7007L77.4536 22.0892L75.5953 22.2018L75.6558 23.2ZM71.8758 22.66L71.5281 23.5976L71.5315 23.5989L71.8758 22.66ZM66.4758 17.62L65.5636 18.03L65.5675 18.0384L66.4758 17.62ZM66.4358 9.98L67.3539 10.3764L67.3555 10.3727L66.4358 9.98ZM68.5358 6.86L67.8287 6.15289V6.15289L68.5358 6.86ZM71.6558 4.74L71.2631 3.82031L71.2593 3.82194L71.6558 4.74ZM80.3358 5.3L79.8213 6.1575L79.8247 6.15954L80.3358 5.3ZM83.8758 8.84L83.0162 9.35109L83.0197 9.35676L83.8758 8.84ZM84.8758 16.3L83.9136 16.0274L83.9106 16.0383L84.8758 16.3ZM83.8558 18.7L84.7226 19.1987L84.7232 19.1977L83.8558 18.7ZM75.9158 32.5V33.5H76.4941L76.7826 32.9987L75.9158 32.5ZM77.9758 17.96L77.4458 17.112L77.4389 17.1163L77.9758 17.96ZM79.6558 11.24L78.801 11.759L78.8052 11.7658L79.6558 11.24ZM77.8558 9.5L77.3596 10.3683L77.3715 10.3749L77.8558 9.5ZM72.9158 9.56L73.4416 10.4106L73.4458 10.408L72.9158 9.56ZM71.1758 16.2L70.3075 16.6962L70.3142 16.7077L71.1758 16.2ZM72.9358 18L72.41 18.8506L72.419 18.8562L72.4281 18.8615L72.9358 18ZM71.1414 33.0007L76.5214 23.7007L74.7902 22.6993L69.4102 31.9993L71.1414 33.0007ZM75.5953 22.2018C74.408 22.2738 73.2861 22.112 72.22 21.7211L71.5315 23.5989C72.8654 24.088 74.2636 24.2862 75.7163 24.1982L75.5953 22.2018ZM72.2234 21.7224C71.1609 21.3284 70.2138 20.745 69.3762 19.9672L68.0153 21.4328C69.0444 22.3884 70.2173 23.1116 71.5281 23.5976L72.2234 21.7224ZM69.3762 19.9672C68.5411 19.1918 67.8775 18.2727 67.384 17.2016L65.5675 18.0384C66.1674 19.3406 66.9838 20.4749 68.0153 21.4328L69.3762 19.9672ZM67.3879 17.2101C66.9163 16.1607 66.6758 15.0148 66.6758 13.76H64.6758C64.6758 15.2785 64.9686 16.706 65.5637 18.0299L67.3879 17.2101ZM66.6758 13.76C66.6758 12.5422 66.9041 11.4179 67.3538 10.3764L65.5177 9.58356C64.9541 10.8887 64.6758 12.2844 64.6758 13.76H66.6758ZM67.3555 10.3727C67.8131 9.30086 68.4418 8.36821 69.2429 7.56711L67.8287 6.15289C66.8431 7.13845 66.0718 8.2858 65.5161 9.58733L67.3555 10.3727ZM69.2429 7.56711C70.0605 6.74945 70.9952 6.11449 72.0522 5.65806L71.2593 3.82194C69.9697 4.37884 68.8243 5.15722 67.8287 6.15289L69.2429 7.56711ZM72.0485 5.65968C73.1044 5.20885 74.2433 4.98 75.4758 4.98V2.98C73.9882 2.98 72.5806 3.25782 71.2631 3.82032L72.0485 5.65968ZM75.4758 4.98C77.0749 4.98 78.5159 5.37427 79.8213 6.15749L80.8503 4.44251C79.2223 3.46573 77.4234 2.98 75.4758 2.98V4.98ZM79.8247 6.15954C81.1613 6.95427 82.2215 8.01448 83.0163 9.35107L84.7353 8.32892C83.7701 6.70552 82.4703 5.40573 80.8469 4.44046L79.8247 6.15954ZM83.0197 9.35676C83.8149 10.6742 84.2158 12.1343 84.2158 13.76H86.2158C86.2158 11.7857 85.7234 9.96577 84.7319 8.32324L83.0197 9.35676ZM84.2158 13.76C84.2158 14.568 84.1134 15.3224 83.9137 16.0274L85.8379 16.5726C86.0915 15.6776 86.2158 14.7387 86.2158 13.76H84.2158ZM83.9106 16.0383C83.7227 16.7312 83.4188 17.4523 82.9884 18.2023L84.7232 19.1977C85.2261 18.3211 85.6022 17.4422 85.8409 16.5617L83.9106 16.0383ZM82.989 18.2013L75.049 32.0013L76.7826 32.9987L84.7226 19.1987L82.989 18.2013ZM75.9158 31.5H70.2758V33.5H75.9158V31.5ZM75.4358 19.66C76.5654 19.66 77.6024 19.3829 78.5127 18.8037L77.4389 17.1163C76.8825 17.4704 76.2262 17.66 75.4358 17.66V19.66ZM78.5058 18.808C79.3917 18.2543 80.0924 17.5244 80.5907 16.6243L78.8409 15.6557C78.5125 16.249 78.0532 16.7323 77.4458 17.112L78.5058 18.808ZM80.5907 16.6243C81.0861 15.7294 81.3358 14.7628 81.3358 13.74H79.3358C79.3358 14.4239 79.1722 15.0572 78.8409 15.6557L80.5907 16.6243ZM81.3358 13.74C81.3358 12.6368 81.0654 11.6185 80.5064 10.7142L78.8052 11.7658C79.1528 12.3281 79.3358 12.9765 79.3358 13.74H81.3358ZM80.5106 10.721C79.9691 9.82914 79.2429 9.12484 78.3401 8.6251L77.3715 10.3749C77.9621 10.7018 78.4358 11.1575 78.801 11.759L80.5106 10.721ZM78.3519 8.63175C77.4579 8.1209 76.4941 7.86 75.4758 7.86V9.86C76.1375 9.86 76.7603 10.0258 77.3596 10.3682L78.3519 8.63175ZM75.4758 7.86C74.3459 7.86 73.3056 8.13709 72.3858 8.712L73.4458 10.408C74.0193 10.0496 74.6857 9.86 75.4758 9.86V7.86ZM72.39 8.7094C71.5151 9.25024 70.8172 9.97194 70.3075 10.8639L72.044 11.8561C72.3877 11.2547 72.8498 10.7764 73.4416 10.4106L72.39 8.7094ZM70.3075 10.8639C69.7967 11.7579 69.5358 12.7217 69.5358 13.74H71.5358C71.5358 13.0783 71.7016 12.4555 72.044 11.8561L70.3075 10.8639ZM69.5358 13.74C69.5358 14.8003 69.7911 15.7924 70.3075 16.6961L72.044 15.7039C71.7071 15.1143 71.5358 14.4663 71.5358 13.74H69.5358ZM70.3142 16.7077C70.8362 17.5934 71.5378 18.3114 72.41 18.8506L73.4616 17.1494C72.8671 16.7819 72.3954 16.2999 72.0373 15.6923L70.3142 16.7077ZM72.4281 18.8615C73.3381 19.3978 74.3486 19.66 75.4358 19.66V17.66C74.6829 17.66 74.0268 17.4822 73.4435 17.1385L72.4281 18.8615ZM91.4289 32.5L90.5633 31.9993L89.6951 33.5H91.4289V32.5ZM96.8089 23.2L97.6745 23.7007L98.6068 22.0892L96.7484 22.2018L96.8089 23.2ZM93.0289 22.66L92.6812 23.5976L92.6847 23.5989L93.0289 22.66ZM87.6289 17.62L86.7168 18.03L86.7206 18.0384L87.6289 17.62ZM87.5889 9.98L88.507 10.3764L88.5086 10.3727L87.5889 9.98ZM89.6889 6.86L88.9818 6.15289V6.15289L89.6889 6.86ZM92.8089 4.74L92.4162 3.82031L92.4125 3.82194L92.8089 4.74ZM101.489 5.3L100.974 6.1575L100.978 6.15954L101.489 5.3ZM105.029 8.84L104.169 9.35109L104.173 9.35676L105.029 8.84ZM106.029 16.3L105.067 16.0274L105.064 16.0383L106.029 16.3ZM105.009 18.7L105.876 19.1987L105.876 19.1977L105.009 18.7ZM97.0689 32.5V33.5H97.6473L97.9357 32.9987L97.0689 32.5ZM99.1289 17.96L98.5989 17.112L98.592 17.1163L99.1289 17.96ZM100.809 11.24L99.9541 11.759L99.9583 11.7658L100.809 11.24ZM99.0089 9.5L98.5127 10.3683L98.5246 10.3749L99.0089 9.5ZM94.0689 9.56L94.5947 10.4106L94.5989 10.408L94.0689 9.56ZM92.3289 16.2L91.4606 16.6962L91.4674 16.7077L92.3289 16.2ZM94.0889 18L93.5631 18.8506L93.5721 18.8562L93.5812 18.8615L94.0889 18ZM92.2945 33.0007L97.6745 23.7007L95.9433 22.6993L90.5633 31.9993L92.2945 33.0007ZM96.7484 22.2018C95.5611 22.2738 94.4393 22.112 93.3732 21.7211L92.6847 23.5989C94.0186 24.088 95.4167 24.2862 96.8694 24.1982L96.7484 22.2018ZM93.3766 21.7224C92.314 21.3284 91.3669 20.745 90.5294 19.9672L89.1685 21.4328C90.1975 22.3884 91.3705 23.1116 92.6813 23.5976L93.3766 21.7224ZM90.5294 19.9672C89.6943 19.1918 89.0306 18.2727 88.5372 17.2016L86.7206 18.0384C87.3205 19.3406 88.1369 20.4749 89.1685 21.4328L90.5294 19.9672ZM88.541 17.2101C88.0694 16.1607 87.8289 15.0148 87.8289 13.76H85.8289C85.8289 15.2785 86.1218 16.706 86.7168 18.0299L88.541 17.2101ZM87.8289 13.76C87.8289 12.5422 88.0572 11.4179 88.507 10.3764L86.6708 9.58356C86.1072 10.8887 85.8289 12.2844 85.8289 13.76H87.8289ZM88.5086 10.3727C88.9662 9.30086 89.5949 8.36821 90.396 7.56711L88.9818 6.15289C87.9962 7.13845 87.2249 8.2858 86.6692 9.58733L88.5086 10.3727ZM90.396 7.56711C91.2137 6.74945 92.1483 6.11449 93.2053 5.65806L92.4125 3.82194C91.1228 4.37884 89.9775 5.15722 88.9818 6.15289L90.396 7.56711ZM93.2016 5.65968C94.2575 5.20885 95.3965 4.98 96.6289 4.98V2.98C95.1413 2.98 93.7337 3.25782 92.4162 3.82032L93.2016 5.65968ZM96.6289 4.98C98.228 4.98 99.669 5.37427 100.974 6.15749L102.003 4.44251C100.375 3.46573 98.5765 2.98 96.6289 2.98V4.98ZM100.978 6.15954C102.314 6.95427 103.375 8.01448 104.169 9.35107L105.888 8.32892C104.923 6.70552 103.623 5.40573 102 4.44046L100.978 6.15954ZM104.173 9.35676C104.968 10.6742 105.369 12.1343 105.369 13.76H107.369C107.369 11.7857 106.876 9.96577 105.885 8.32324L104.173 9.35676ZM105.369 13.76C105.369 14.568 105.267 15.3224 105.067 16.0274L106.991 16.5726C107.245 15.6776 107.369 14.7387 107.369 13.76H105.369ZM105.064 16.0383C104.876 16.7312 104.572 17.4523 104.142 18.2023L105.876 19.1977C106.379 18.3211 106.755 17.4422 106.994 16.5617L105.064 16.0383ZM104.142 18.2013L96.2021 32.0013L97.9357 32.9987L105.876 19.1987L104.142 18.2013ZM97.0689 31.5H91.4289V33.5H97.0689V31.5ZM96.5889 19.66C97.7185 19.66 98.7555 19.3829 99.6658 18.8037L98.592 17.1163C98.0357 17.4704 97.3793 17.66 96.5889 17.66V19.66ZM99.6589 18.808C100.545 18.2543 101.246 17.5244 101.744 16.6243L99.994 15.6557C99.6656 16.249 99.2064 16.7323 98.5989 17.112L99.6589 18.808ZM101.744 16.6243C102.239 15.7294 102.489 14.7628 102.489 13.74H100.489C100.489 14.4239 100.325 15.0572 99.994 15.6557L101.744 16.6243ZM102.489 13.74C102.489 12.6368 102.219 11.6185 101.66 10.7142L99.9583 11.7658C100.306 12.3281 100.489 12.9765 100.489 13.74H102.489ZM101.664 10.721C101.122 9.82914 100.396 9.12484 99.4932 8.6251L98.5246 10.3749C99.1152 10.7018 99.589 11.1575 99.9541 11.759L101.664 10.721ZM99.505 8.63175C98.611 8.1209 97.6472 7.86 96.6289 7.86V9.86C97.2906 9.86 97.9134 10.0258 98.5128 10.3682L99.505 8.63175ZM96.6289 7.86C95.499 7.86 94.4588 8.13709 93.5389 8.712L94.5989 10.408C95.1724 10.0496 95.8388 9.86 96.6289 9.86V7.86ZM93.5431 8.7094C92.6682 9.25024 91.9703 9.97194 91.4607 10.8639L93.1972 11.8561C93.5408 11.2547 94.0029 10.7764 94.5947 10.4106L93.5431 8.7094ZM91.4607 10.8639C90.9498 11.7579 90.6889 12.7217 90.6889 13.74H92.6889C92.6889 13.0783 92.8547 12.4555 93.1972 11.8561L91.4607 10.8639ZM90.6889 13.74C90.6889 14.8003 90.9442 15.7924 91.4607 16.6961L93.1972 15.7039C92.8603 15.1143 92.6889 14.4663 92.6889 13.74H90.6889ZM91.4674 16.7077C91.9893 17.5934 92.6909 18.3114 93.5631 18.8506L94.6147 17.1494C94.0202 16.7819 93.5485 16.2999 93.1904 15.6923L91.4674 16.7077ZM93.5812 18.8615C94.4913 19.3978 95.5018 19.66 96.5889 19.66V17.66C95.836 17.66 95.1799 17.4822 94.5966 17.1385L93.5812 18.8615Z" fill="black" fill-opacity="0.05" mask="url(#path-1-inside-1_7_212)"/>
<defs>
<linearGradient id="paint0_linear_7_212" x1="28.3867" y1="-51.5" x2="87.8802" y2="44.54" gradientUnits="userSpaceOnUse">
<stop stop-color="#68D970"/>
<stop offset="1" stop-color="#00996D"/>
</linearGradient>
</defs>
</svg>
